<svg width="907" height="509" viewBox="0 0 907 509" fill="none" xmlns="http://www.w3.org/2000/svg">
<g clip-path="url(#clip0_6_544)">
<mask id="mask0_6_544" style="mask-type:alpha" maskUnits="userSpaceOnUse" x="0" y="54" width="907" height="395">
<rect y="54.2459" width="906.458" height="394.659" fill="url(#paint0_linear_6_544)"/>
</mask>
<g mask="url(#mask0_6_544)">
<path d="M792.848 106.079L741.613 88.9638L530.612 89.6242L494.086 76.503L463.182 89.3412L331.12 88.9795L278.793 64.9855H202.707L190.938 88.9717H124.624L0 287.433L138.728 444.023H768.028L906.756 287.433L792.84 106.071L792.848 106.079ZM764.828 436.924H141.928L8.85231 286.71L128.563 96.0708H195.38L207.141 72.0847H277.244L329.556 96.0708L464.589 96.4403L494.267 84.1053L529.377 96.7233L740.465 96.063L788.178 111.999L897.904 286.694L764.828 436.908V436.924Z" fill="url(#paint1_linear_6_544)"/>
</g>
<path d="M897.912 286.709L764.828 436.915H141.928L8.85211 286.709L128.563 96.0701H195.38L207.141 72.0839H277.244L329.564 96.0701L464.589 96.4474L494.267 84.1124L529.377 96.7305L740.465 96.0701L788.178 112.014L897.912 286.709Z" fill="url(#paint2_linear_6_544)"/>
<path d="M897.894 286.709L788.184 112.014L740.455 96.0778L529.383 96.7225L494.273 84.1044L464.579 96.4395L329.554 96.0778L277.242 72.0917H207.147L195.386 96.0778H128.577L8.85814 286.709H88.9141L149.253 331.56H246.974L261.605 286.709H324.994L339.562 223.249H354.02L373.548 214.743L369.452 257.809L423.447 286.709H897.894Z" fill="#4A357D"/>
<path d="M51.2505 263.274H119.451L131.173 240.789H100.929L122.328 203.273L157.392 190.505L168.469 169.279L135.096 180.89L152.856 149.75L142.392 133.94H161.881H186.897L194.421 119.514H141.535L51.2505 263.274Z" fill="white"/>
<path d="M221.764 95.5192L182.172 176.306L230.176 204.797L249.012 214.53L220.506 230.01L200.388 282.44H168.099L202.628 202.62L176.834 187.195L128.067 286.685L156.991 308.124H229.971L266.127 197.242L216.716 170.048L243.313 108.57H267.086L283.266 115.37L260.38 126.054L244.759 166.786L271.387 181.094L295.727 106.447L272.094 95.5192H221.764Z" fill="white"/>
<path d="M310.766 119.513L269.476 263.272H306.324L320.9 199.812H349.139L384.218 184.537L390.72 131.753L363.644 119.513H310.758H310.766ZM358.117 150.165L352.457 181.494H325.114L336.034 133.931H361.05L379.509 141.439L358.117 150.158V150.165Z" fill="white"/>
<path d="M406.145 119.513L394.258 244.506L429.322 263.272H497.522L488.457 131.753L459.039 119.513H406.153H406.145ZM459.534 163.743L460.415 240.78H430.171L434.188 133.931H459.204L478.426 141.439L459.542 163.743H459.534Z" fill="white"/>
<path d="M508.623 131.808L522.892 263.272H559.74L549.197 199.812H577.436L591.084 263.272H627.94L611.407 202.619L589.716 193.436L606.478 184.537L588.749 119.513H535.864L508.623 131.808V131.808ZM573.506 181.494H546.162L540.989 150.331L519.653 141.447L538.261 133.939H563.277L573.506 181.502V181.494Z" fill="white"/>
<path d="M602.421 133.939H627.051L671.006 263.272H707.862L662.673 149.56L636.863 133.766H680.637L674.3 119.513H598.215L602.421 133.939Z" fill="white"/>
<path d="M803.901 181.094L772.808 131.588L736.644 119.513H683.758L710.11 176.306L785.292 204.797L805.827 240.788H775.575L755.677 202.619L715.158 187.194L741.746 244.506L787.305 263.272H855.505L814.035 197.242L738.688 170.048L728.129 149.796L700.385 133.939H744.875L763.609 166.785L803.901 181.094Z" fill="white"/>
<path d="M495.507 102.287C491.646 106.053 487.275 109.544 482.472 112.712C487.723 115.912 492.716 119.559 497.378 123.592C501.332 119.559 505.687 115.912 510.373 112.712C505.011 109.544 500.027 106.053 495.507 102.287Z" fill="#E2D45C"/>
<path d="M92.8089 245.505L114.94 206.7C106.732 207.635 98.5951 208.594 90.529 209.593L59.7817 258.555H116.591L123.391 245.505H92.8089V245.505Z" fill="url(#paint3_linear_6_544)"/>
<path d="M251.482 194.568C242.693 195.142 233.958 195.755 225.279 196.408L232.465 200.669L256.074 212.862L260.429 199.489L251.482 194.568V194.568ZM224.281 233.318L203.636 287.156H160.923L196.662 204.544L188.062 199.403C183.879 199.764 179.705 200.134 175.554 200.519L134.036 285.229L158.549 303.406H226.545L254.8 216.754L224.281 233.318V233.318Z" fill="url(#paint4_linear_6_544)"/>
<path d="M361.745 189.183L348.168 195.095H317.153L302.577 258.555H275.745L294.857 192.005C316.854 190.85 339.158 189.906 361.745 189.183Z" fill="url(#paint5_linear_6_544)"/>
<path d="M492.467 258.555H430.509L399.251 241.834L404.369 188.067C412.034 187.91 419.723 187.784 427.443 187.682L425.273 245.505H465.187L464.527 187.375C468.056 187.367 471.594 187.36 475.14 187.36C479.291 187.36 483.434 187.367 487.561 187.383L492.467 258.555V258.555Z" fill="url(#paint6_linear_6_544)"/>
<path d="M621.77 258.555H594.898L581.25 195.095H543.632L554.174 258.555H527.122L519.426 187.634C542.445 187.917 565.22 188.428 587.72 189.151L578.75 193.916L607.461 206.07L621.77 258.555V258.555Z" fill="url(#paint7_linear_6_544)"/>
<path d="M674.893 193.082C667.204 192.634 659.476 192.209 651.709 191.816L674.39 258.555H700.915L674.893 193.082Z" fill="url(#paint8_linear_6_544)"/>
<path d="M812.874 204.255C804.989 203.429 797.049 202.627 789.046 201.857L813.952 245.505H772.717L752.323 206.393L726.356 196.503C725.774 196.456 725.2 196.417 724.619 196.377L745.256 240.851L788.236 258.556H846.979L812.874 204.255Z" fill="url(#paint9_linear_6_544)"/>
<path fill-rule="evenodd" clip-rule="evenodd" d="M375.776 369.061V359.36L348.976 369.329H348.921V379.282H348.976L375.776 389.25V379.533L362.042 374.282L375.776 369.061V369.061Z" fill="#996DFF"/>
<path fill-rule="evenodd" clip-rule="evenodd" d="M531.016 388.747V379.046L544.742 373.826L531.016 368.606V358.904L557.777 368.865H557.84V378.826H557.777L531.016 388.739V388.747ZM519.522 345.201L503.783 395.721H513.13L528.869 345.201H519.522Z" fill="#996DFF"/>
<path fill-rule="evenodd" clip-rule="evenodd" d="M415.157 357.528C417.815 360.453 419.214 364.305 419.049 368.251V389.769H409.701V370.225C409.811 368.047 409.112 365.909 407.752 364.21C406.454 362.701 404.536 361.868 402.547 361.954C396.698 361.954 393.766 366.011 393.766 374.132V389.777H384.418V354.446H393.766V357.638C396.729 354.753 400.755 353.22 404.89 353.393C408.742 353.228 412.484 354.737 415.149 357.528H415.157Z" fill="white"/>
<path fill-rule="evenodd" clip-rule="evenodd" d="M430.943 339.753V390.272H440.291V339.753H430.943Z" fill="white"/>
<path fill-rule="evenodd" clip-rule="evenodd" d="M493.105 388.425H485.306L477.664 367.615L469.952 388.425H462.169L449.071 353.031H459.055L466.414 374.195L474.001 353.031H481.288L488.875 374.266L496.234 353.031H506.218L493.105 388.425V388.425Z" fill="white"/>
<path d="M38.107 82.4857C48.6889 56.9272 70.0571 36.7855 101.598 22.6265C131.819 9.05715 170.113 1.50989 215.405 0.204842C308.252 -2.47601 420.336 21.2821 530.99 67.1239C538.946 70.418 546.832 73.7985 554.631 77.2655L543.601 77.297C538.868 75.2451 534.096 73.2246 529.284 71.2356C302.576 -22.6649 84.0745 -16.8551 42.2187 84.1917C30.0959 113.453 34.0975 147.534 51.409 183.478C93.8545 271.67 216.395 371.051 377.466 437.765C393.048 444.22 408.646 450.226 424.22 455.784C518.71 489.527 612.037 506.626 691.22 504.338C735.93 503.049 773.643 495.635 803.329 482.31C833.809 468.63 854.398 449.283 864.532 424.809C873.675 402.725 873.644 377.898 865.633 351.593L869.053 347.733C878.44 376.727 878.314 403.197 868.652 426.515C858.062 452.074 836.702 472.215 805.153 486.374C774.932 499.944 736.645 507.491 691.354 508.796C686.621 508.93 681.841 509 677.014 509C597.194 509 504.481 490.392 411.201 455.784C399.385 451.405 387.569 446.767 375.76 441.877C265.107 396.043 169.052 333.597 105.293 266.041C80.2223 239.477 61.2283 213.266 48.6417 187.88C45.6071 181.772 42.9498 175.718 40.6699 169.719C28.382 137.4 27.5172 108.052 38.107 82.4857V82.4857Z" fill="url(#paint10_linear_6_544)"/>
<path d="M38.107 82.4857C48.6889 56.9272 70.0571 36.7855 101.598 22.6265C131.819 9.05715 170.113 1.50989 215.405 0.204842C308.252 -2.47601 420.336 21.2821 530.99 67.1239C538.946 70.418 546.832 73.7985 554.631 77.2655L543.601 77.297C538.868 75.2451 534.096 73.2246 529.284 71.2356C302.576 -22.6649 84.0745 -16.8551 42.2187 84.1917C30.0959 113.453 34.0975 147.534 51.409 183.478C93.8545 271.67 216.395 371.051 377.466 437.765C393.048 444.22 408.646 450.226 424.22 455.784C518.71 489.527 612.037 506.626 691.22 504.338C735.93 503.049 773.643 495.635 803.329 482.31C833.809 468.63 854.398 449.283 864.532 424.809C873.675 402.725 873.644 377.898 865.633 351.593L869.053 347.733C878.44 376.727 878.314 403.197 868.652 426.515C858.062 452.074 836.702 472.215 805.153 486.374C774.932 499.944 736.645 507.491 691.354 508.796C686.621 508.93 681.841 509 677.014 509C597.194 509 504.481 490.392 411.201 455.784C399.385 451.405 387.569 446.767 375.76 441.877C265.107 396.043 169.052 333.597 105.293 266.041C80.2223 239.477 61.2283 213.266 48.6417 187.88C45.6071 181.772 42.9498 175.718 40.6699 169.719C28.382 137.4 27.5172 108.052 38.107 82.4857V82.4857Z" fill="url(#paint11_radial_6_544)"/>
<path d="M38.107 82.4857C48.6889 56.9272 70.0571 36.7855 101.598 22.6265C131.819 9.05715 170.113 1.50989 215.405 0.204842C308.252 -2.47601 420.336 21.2821 530.99 67.1239C538.946 70.418 546.832 73.7985 554.631 77.2655L543.601 77.297C538.868 75.2451 534.096 73.2246 529.284 71.2356C302.576 -22.6649 84.0745 -16.8551 42.2187 84.1917C30.0959 113.453 34.0975 147.534 51.409 183.478C93.8545 271.67 216.395 371.051 377.466 437.765C393.048 444.22 408.646 450.226 424.22 455.784C518.71 489.527 612.037 506.626 691.22 504.338C735.93 503.049 773.643 495.635 803.329 482.31C833.809 468.63 854.398 449.283 864.532 424.809C873.675 402.725 873.644 377.898 865.633 351.593L869.053 347.733C878.44 376.727 878.314 403.197 868.652 426.515C858.062 452.074 836.702 472.215 805.153 486.374C774.932 499.944 736.645 507.491 691.354 508.796C686.621 508.93 681.841 509 677.014 509C597.194 509 504.481 490.392 411.201 455.784C399.385 451.405 387.569 446.767 375.76 441.877C265.107 396.043 169.052 333.597 105.293 266.041C80.2223 239.477 61.2283 213.266 48.6417 187.88C45.6071 181.772 42.9498 175.718 40.6699 169.719C28.382 137.4 27.5172 108.052 38.107 82.4857V82.4857Z" fill="url(#paint12_radial_6_544)"/>
<path d="M38.107 82.4857C48.6889 56.9272 70.0571 36.7855 101.598 22.6265C131.819 9.05715 170.113 1.50989 215.405 0.204842C308.252 -2.47601 420.336 21.2821 530.99 67.1239C538.946 70.418 546.832 73.7985 554.631 77.2655L543.601 77.297C538.868 75.2451 534.096 73.2246 529.284 71.2356C302.576 -22.6649 84.0745 -16.8551 42.2187 84.1917C30.0959 113.453 34.0975 147.534 51.409 183.478C93.8545 271.67 216.395 371.051 377.466 437.765C393.048 444.22 408.646 450.226 424.22 455.784C518.71 489.527 612.037 506.626 691.22 504.338C735.93 503.049 773.643 495.635 803.329 482.31C833.809 468.63 854.398 449.283 864.532 424.809C873.675 402.725 873.644 377.898 865.633 351.593L869.053 347.733C878.44 376.727 878.314 403.197 868.652 426.515C858.062 452.074 836.702 472.215 805.153 486.374C774.932 499.944 736.645 507.491 691.354 508.796C686.621 508.93 681.841 509 677.014 509C597.194 509 504.481 490.392 411.201 455.784C399.385 451.405 387.569 446.767 375.76 441.877C265.107 396.043 169.052 333.597 105.293 266.041C80.2223 239.477 61.2283 213.266 48.6417 187.88C45.6071 181.772 42.9498 175.718 40.6699 169.719C28.382 137.4 27.5172 108.052 38.107 82.4857V82.4857Z" fill="url(#paint13_radial_6_544)"/>
<path d="M868.651 82.4857C858.069 56.9272 836.701 36.7855 805.16 22.6265C774.939 9.05715 736.645 1.50989 691.353 0.204842C598.506 -2.47601 486.422 21.2821 375.768 67.1239C367.812 70.418 359.926 73.7985 352.128 77.2655L363.158 77.297C367.89 75.2451 372.662 73.2246 377.474 71.2356C604.182 -22.6649 822.684 -16.8551 864.54 84.1917C876.662 113.453 872.661 147.534 855.349 183.478C812.904 271.67 690.363 371.051 529.292 437.765C513.71 444.22 498.112 450.226 482.538 455.784C388.048 489.527 294.721 506.626 215.538 504.338C170.828 503.049 133.115 495.635 103.43 482.31C72.9496 468.63 52.3597 449.283 42.226 424.809C33.0828 402.725 33.1142 377.898 41.1253 351.593L37.7055 347.733C28.3185 376.727 28.4443 403.197 38.1064 426.515C48.6962 452.074 70.0565 472.215 101.606 486.374C131.826 499.944 170.113 507.491 215.404 508.796C220.137 508.93 224.917 509 229.744 509C309.564 509 402.278 490.392 495.557 455.784C507.373 451.405 519.189 446.767 530.998 441.877C641.651 396.043 737.706 333.597 801.465 266.041C826.536 239.477 845.53 213.266 858.116 187.88C861.151 181.772 863.808 175.718 866.088 169.719C878.376 137.4 879.241 108.052 868.651 82.4857V82.4857Z" fill="url(#paint14_linear_6_544)"/>
<path d="M868.651 82.4857C858.069 56.9272 836.701 36.7855 805.16 22.6265C774.939 9.05715 736.645 1.50989 691.353 0.204842C598.506 -2.47601 486.422 21.2821 375.768 67.1239C367.812 70.418 359.926 73.7985 352.128 77.2655L363.158 77.297C367.89 75.2451 372.662 73.2246 377.474 71.2356C604.182 -22.6649 822.684 -16.8551 864.54 84.1917C876.662 113.453 872.661 147.534 855.349 183.478C812.904 271.67 690.363 371.051 529.292 437.765C513.71 444.22 498.112 450.226 482.538 455.784C388.048 489.527 294.721 506.626 215.538 504.338C170.828 503.049 133.115 495.635 103.43 482.31C72.9496 468.63 52.3597 449.283 42.226 424.809C33.0828 402.725 33.1142 377.898 41.1253 351.593L37.7055 347.733C28.3185 376.727 28.4443 403.197 38.1064 426.515C48.6962 452.074 70.0565 472.215 101.606 486.374C131.826 499.944 170.113 507.491 215.404 508.796C220.137 508.93 224.917 509 229.744 509C309.564 509 402.278 490.392 495.557 455.784C507.373 451.405 519.189 446.767 530.998 441.877C641.651 396.043 737.706 333.597 801.465 266.041C826.536 239.477 845.53 213.266 858.116 187.88C861.151 181.772 863.808 175.718 866.088 169.719C878.376 137.4 879.241 108.052 868.651 82.4857V82.4857Z" fill="url(#paint15_radial_6_544)"/>
<path d="M868.651 82.4857C858.069 56.9272 836.701 36.7855 805.16 22.6265C774.939 9.05715 736.645 1.50989 691.353 0.204842C598.506 -2.47601 486.422 21.2821 375.768 67.1239C367.812 70.418 359.926 73.7985 352.128 77.2655L363.158 77.297C367.89 75.2451 372.662 73.2246 377.474 71.2356C604.182 -22.6649 822.684 -16.8551 864.54 84.1917C876.662 113.453 872.661 147.534 855.349 183.478C812.904 271.67 690.363 371.051 529.292 437.765C513.71 444.22 498.112 450.226 482.538 455.784C388.048 489.527 294.721 506.626 215.538 504.338C170.828 503.049 133.115 495.635 103.43 482.31C72.9496 468.63 52.3597 449.283 42.226 424.809C33.0828 402.725 33.1142 377.898 41.1253 351.593L37.7055 347.733C28.3185 376.727 28.4443 403.197 38.1064 426.515C48.6962 452.074 70.0565 472.215 101.606 486.374C131.826 499.944 170.113 507.491 215.404 508.796C220.137 508.93 224.917 509 229.744 509C309.564 509 402.278 490.392 495.557 455.784C507.373 451.405 519.189 446.767 530.998 441.877C641.651 396.043 737.706 333.597 801.465 266.041C826.536 239.477 845.53 213.266 858.116 187.88C861.151 181.772 863.808 175.718 866.088 169.719C878.376 137.4 879.241 108.052 868.651 82.4857V82.4857Z" fill="url(#paint16_radial_6_544)"/>
</g>
<defs>
<linearGradient id="paint0_linear_6_544" x1="453.229" y1="237.817" x2="453.229" y2="431.216" gradientUnits="userSpaceOnUse">
<stop stop-color="#D9D9D9"/>
<stop offset="1" stop-color="#D9D9D9" stop-opacity="0"/>
</linearGradient>
<linearGradient id="paint1_linear_6_544" x1="0" y1="254.5" x2="906.764" y2="254.5" gradientUnits="userSpaceOnUse">
<stop stop-color="#996DFF"/>
<stop offset="0.5" stop-color="#35E8B3"/>
<stop offset="1" stop-color="#E2D45C"/>
</linearGradient>
<linearGradient id="paint2_linear_6_544" x1="453.378" y1="292.393" x2="453.378" y2="433.181" gradientUnits="userSpaceOnUse">
<stop stop-color="#28203E"/>
<stop offset="1" stop-color="#121214" stop-opacity="0"/>
</linearGradient>
<linearGradient id="paint3_linear_6_544" x1="91.5903" y1="194.105" x2="91.5903" y2="249.585" gradientUnits="userSpaceOnUse">
<stop stop-color="#A9A9AD"/>
<stop offset="1" stop-color="#A9A9AD" stop-opacity="0"/>
</linearGradient>
<linearGradient id="paint4_linear_6_544" x1="197.236" y1="194.104" x2="197.236" y2="249.584" gradientUnits="userSpaceOnUse">
<stop stop-color="#A9A9AD"/>
<stop offset="1" stop-color="#A9A9AD" stop-opacity="0"/>
</linearGradient>
<linearGradient id="paint5_linear_6_544" x1="318.749" y1="194.104" x2="318.749" y2="249.585" gradientUnits="userSpaceOnUse">
<stop stop-color="#A9A9AD"/>
<stop offset="1" stop-color="#A9A9AD" stop-opacity="0"/>
</linearGradient>
<linearGradient id="paint6_linear_6_544" x1="445.863" y1="194.105" x2="445.863" y2="249.585" gradientUnits="userSpaceOnUse">
<stop stop-color="#A9A9AD"/>
<stop offset="1" stop-color="#A9A9AD" stop-opacity="0"/>
</linearGradient>
<linearGradient id="paint7_linear_6_544" x1="570.598" y1="194.104" x2="570.598" y2="249.585" gradientUnits="userSpaceOnUse">
<stop stop-color="#A9A9AD"/>
<stop offset="1" stop-color="#A9A9AD" stop-opacity="0"/>
</linearGradient>
<linearGradient id="paint8_linear_6_544" x1="676.316" y1="194.104" x2="676.316" y2="249.584" gradientUnits="userSpaceOnUse">
<stop stop-color="#A9A9AD"/>
<stop offset="1" stop-color="#A9A9AD" stop-opacity="0"/>
</linearGradient>
<linearGradient id="paint9_linear_6_544" x1="785.799" y1="194.105" x2="785.799" y2="249.586" gradientUnits="userSpaceOnUse">
<stop stop-color="#A9A9AD"/>
<stop offset="1" stop-color="#A9A9AD" stop-opacity="0"/>
</linearGradient>
<linearGradient id="paint10_linear_6_544" x1="822.731" y1="364.392" x2="210.302" y2="367.536" gradientUnits="userSpaceOnUse">
<stop stop-color="#996DFF"/>
<stop offset="0.5" stop-color="#35E8B3"/>
<stop offset="1" stop-color="#E2D45C"/>
</linearGradient>
<radialGradient id="paint11_radial_6_544" cx="0" cy="0" r="1" gradientUnits="userSpaceOnUse" gradientTransform="translate(447.786 465.138) rotate(15.7611) scale(411.689 683.642)">
<stop stop-color="#171226"/>
<stop offset="1" stop-color="#171226" stop-opacity="0"/>
</radialGradient>
<radialGradient id="paint12_radial_6_544" cx="0" cy="0" r="1" gradientUnits="userSpaceOnUse" gradientTransform="translate(553.346 79.5317) rotate(-157.036) scale(92.6584 153.867)">
<stop stop-color="#261945"/>
<stop offset="1" stop-color="#261945" stop-opacity="0"/>
</radialGradient>
<radialGradient id="paint13_radial_6_544" cx="0" cy="0" r="1" gradientUnits="userSpaceOnUse" gradientTransform="translate(870.025 341.262) rotate(76.7293) scale(104.989 174.343)">
<stop stop-color="#191326"/>
<stop offset="1" stop-color="#191326" stop-opacity="0"/>
</radialGradient>
<linearGradient id="paint14_linear_6_544" x1="476.706" y1="56.3953" x2="613.596" y2="403.441" gradientUnits="userSpaceOnUse">
<stop stop-color="#996DFF"/>
<stop offset="0.5" stop-color="#35E8B3"/>
<stop offset="1" stop-color="#E2D45C"/>
</linearGradient>
<radialGradient id="paint15_radial_6_544" cx="0" cy="0" r="1" gradientUnits="userSpaceOnUse" gradientTransform="translate(343.672 87.2438) rotate(-19.3523) scale(209.458 347.821)">
<stop stop-color="#171225"/>
<stop offset="1" stop-color="#171225" stop-opacity="0"/>
</radialGradient>
<radialGradient id="paint16_radial_6_544" cx="0" cy="0" r="1" gradientUnits="userSpaceOnUse" gradientTransform="translate(38.0789 346.082) rotate(67.4706) scale(140.895 233.967)">
<stop stop-color="#191327"/>
<stop offset="1" stop-color="#191327" stop-opacity="0"/>
</radialGradient>
<clipPath id="clip0_6_544">
<rect width="906.764" height="509" fill="white"/>
</clipPath>
</defs>
</svg>
